<svg width="68" height="26" viewBox="0 0 68 26" fill="none" xmlns="http://www.w3.org/2000/svg">
<path fill-rule="evenodd" clip-rule="evenodd" d="M2.14554 8.4194C1.14055 9.70544 0.638062 11.4088 0.638062 13.5295V13.7083C0.638062 15.8205 1.14055 17.5324 2.14554 18.844C3.15904 20.1556 4.46638 20.8114 6.06754 20.8114C7.75387 20.8114 9.06972 20.2322 10.0151 19.0739L10.1301 20.5559H12.3019V0.933105H9.93844V8.13834C8.99307 7.03115 7.71129 6.47756 6.09309 6.47756C4.46638 6.47756 3.15053 7.12484 2.14554 8.4194ZM3.9724 17.477C3.32512 16.5913 3.00148 15.3649 3.00148 13.7978C3.00148 12.0433 3.32512 10.7189 3.9724 9.82467C4.61968 8.93041 5.52246 8.48327 6.68075 8.48327C8.14564 8.48327 9.23154 9.13481 9.93844 10.4379V16.7872C9.24857 18.1328 8.15416 18.8057 6.6552 18.8057C5.51394 18.8057 4.61968 18.3628 3.9724 17.477ZM16.1855 20.5559H18.5489V7.9748H16.1855V20.5559ZM16.0241 2.74206C16.072 2.49703 16.1769 2.28156 16.3388 2.09565C16.5773 1.83163 16.9265 1.69962 17.3864 1.69962C17.8463 1.69962 18.1955 1.83163 18.434 2.09565C18.6019 2.28156 18.7107 2.49703 18.7604 2.74206H16.0241ZM39.814 2.74206H37.0777C37.1256 2.49703 37.2305 2.28156 37.3924 2.09565C37.6309 1.83163 37.9801 1.69962 38.44 1.69962C38.8999 1.69962 39.2491 1.83163 39.4876 2.09565C39.6555 2.28156 39.7643 2.49703 39.814 2.74206ZM37.2391 7.9748H39.6025V20.5559H37.2391V7.9748ZM31.2055 7.9748H33.4577V20.2237C33.4577 22.0123 32.9254 23.4218 31.8607 24.4523C30.8047 25.4829 29.3823 25.9981 27.5938 25.9981C26.5973 25.9981 25.6222 25.7852 24.6683 25.3594C23.7144 24.9335 22.9862 24.3501 22.4837 23.6092L23.7101 22.1911C24.7236 23.4431 25.9628 24.0691 27.4277 24.0691C28.5775 24.0691 29.4718 23.7454 30.1105 23.0981C30.7578 22.4509 31.0815 21.5396 31.0815 20.3642V19.1761C30.1361 20.2663 28.8458 20.8114 27.2106 20.8114C25.5924 20.8114 24.2808 20.1598 23.2758 18.8568C22.2793 17.5537 21.7811 15.7779 21.7811 13.5295C21.7811 11.3747 22.2793 9.66285 23.2758 8.39385C23.3914 8.24556 23.5115 8.10588 23.6359 7.9748H30.9344C31.0202 8.06759 31.1033 8.16468 31.1837 8.26609L31.2055 7.9748ZM25.1154 17.477C24.4767 16.5828 24.1573 15.3564 24.1573 13.7978C24.1573 12.0433 24.4809 10.7189 25.1282 9.82467C25.7755 8.93041 26.674 8.48327 27.8238 8.48327C29.2716 8.48327 30.3575 9.14333 31.0815 10.4634V16.7744C30.3831 18.1286 29.2887 18.8057 27.7982 18.8057C26.6484 18.8057 25.7542 18.3628 25.1154 17.477ZM46.6034 6.73306V3.38595H44.24V6.73306H41.7232V8.55992H44.24V17.1321C44.24 18.3074 44.5082 19.2145 45.0448 19.8532C45.5814 20.492 46.3777 20.8114 47.4338 20.8114C48.0214 20.8114 48.6261 20.7262 49.2478 20.5559V18.6396C48.7709 18.7418 48.3962 18.7929 48.1236 18.7929C47.57 18.7929 47.1783 18.6566 46.9483 18.3841C46.7184 18.103 46.6034 17.6857 46.6034 17.1321V8.55992H49.184V6.73306H46.6034ZM59.2764 15.4075C59.7619 15.7566 60.0046 16.2506 60.0046 16.8894C60.0046 17.4941 59.7321 17.9795 59.187 18.3458C58.6504 18.7035 57.935 18.8823 57.0407 18.8823C56.0698 18.8823 55.2863 18.6524 54.6901 18.1925C54.1024 17.724 53.7873 17.0938 53.7447 16.3017H51.3813C51.3813 17.1193 51.6198 17.8816 52.0967 18.5885C52.5822 19.2869 53.2508 19.8319 54.1024 20.2237C54.9541 20.6155 55.9336 20.8114 57.0407 20.8114C58.6164 20.8114 59.8981 20.4409 60.8861 19.6999C61.874 18.9505 62.368 17.9582 62.368 16.7233C62.368 15.9823 62.1892 15.3564 61.8315 14.8453C61.4823 14.3258 60.9415 13.8829 60.209 13.5167C59.4766 13.1505 58.5184 12.8354 57.3346 12.5713C56.1593 12.3073 55.3459 12.0305 54.8945 11.741C54.4431 11.4514 54.2174 11.0213 54.2174 10.4507C54.2174 9.84596 54.4601 9.35625 54.9456 8.98151C55.4311 8.60677 56.1039 8.4194 56.9641 8.4194C57.7987 8.4194 58.4886 8.65361 59.0337 9.12203C59.5873 9.59046 59.8641 10.1483 59.8641 10.7956H62.2403C62.2403 9.5351 61.7505 8.50031 60.7711 7.69121C59.8002 6.88211 58.5312 6.47756 56.9641 6.47756C55.4736 6.47756 54.2472 6.86933 53.2848 7.65288C52.3309 8.43643 51.854 9.39457 51.854 10.5273C51.854 11.2087 52.0201 11.7963 52.3522 12.2903C52.6929 12.7843 53.2124 13.2101 53.9108 13.5678C54.6177 13.9255 55.5673 14.2321 56.7597 14.4876C57.9606 14.7431 58.7995 15.0497 59.2764 15.4075Z" fill="#1E266D"/>
<path d="M65.3569 21.58C66.5129 21.58 67.45 20.6429 67.45 19.4869C67.45 18.3309 66.5129 17.3938 65.3569 17.3938C64.2009 17.3938 63.2638 18.3309 63.2638 19.4869C63.2638 20.6429 64.2009 21.58 65.3569 21.58Z" fill="#FF2E6A"/>
<path d="M65.3569 13.2074C66.5129 13.2074 67.45 12.2703 67.45 11.1143C67.45 9.95835 66.5129 9.02124 65.3569 9.02124C64.2009 9.02124 63.2638 9.95835 63.2638 11.1143C63.2638 12.2703 64.2009 13.2074 65.3569 13.2074Z" fill="#FF2E6A"/>
</svg>
